<svg width="24" height="25" viewBox="0 0 24 25" fill="none" xmlns="http://www.w3.org/2000/svg">
<path d="M8 10.3438V8.34375H6V12.8438C6 13.1199 5.77614 13.3438 5.5 13.3438C5.22386 13.3438 5 13.1199 5 12.8438V7.34375H8C8 4.94003 9.95227 3.34375 12 3.34375C14.0575 3.34375 16 5.04931 16 7.34375H19V19.8438C19 20.6721 18.3284 21.3438 17.5 21.3438H12.5C12.2239 21.3438 12 21.1199 12 20.8438C12 20.5676 12.2239 20.3438 12.5 20.3438H17.5C17.7761 20.3438 18 20.1199 18 19.8438V8.34375H16V10.3438H15V8.34375H9V10.3438H8ZM12 4.34375C10.4477 4.34375 9 5.54747 9 7.34375H15C15 5.63819 13.5425 4.34375 12 4.34375Z" fill="#15151A"/>
<path d="M7.5 14.3438C7.77614 14.3438 8 14.5676 8 14.8438V17.3438H10.5C10.7761 17.3438 11 17.5677 11 17.8438C11 18.1198 10.7761 18.3438 10.5 18.3438H8V20.8438C8 21.1199 7.77614 21.3438 7.5 21.3438C7.22386 21.3438 7 21.1199 7 20.8438V18.3438H4.5C4.22386 18.3438 4 18.1198 4 17.8438C4 17.5677 4.22386 17.3438 4.5 17.3438H7V14.8438C7 14.5676 7.22386 14.3438 7.5 14.3438Z" fill="#15151A"/>
</svg>
