<svg width="18" height="16" viewBox="0 0 18 16" fill="none" xmlns="http://www.w3.org/2000/svg">
<path d="M0 4.88049C0 2.2186 2.15017 0.015625 4.86486 0.015625C6.98685 0.015625 8.35921 1.37438 9 2.20235C9.6408 1.37438 11.0132 0.015625 13.1351 0.015625C15.8506 0.015625 18 2.21865 18 4.88049C18 6.0455 17.5328 7.20185 16.8534 8.28063C16.1716 9.36322 15.252 10.4059 14.29 11.3533C12.9567 12.6664 11.4757 13.8543 10.4134 14.7063C9.9618 15.0685 9.5859 15.37 9.3293 15.5946C9.1407 15.7595 8.85926 15.7595 8.67075 15.5946C8.41405 15.37 8.03815 15.0685 7.58659 14.7063C6.52431 13.8543 5.04326 12.6664 3.70997 11.3533C2.74802 10.4059 1.82836 9.36322 1.14659 8.28063C0.46724 7.20185 0 6.0455 0 4.88049ZM4.86486 1.01562C2.70929 1.01562 1 2.764 1 4.88049C1 5.78306 1.36553 6.7517 1.99277 7.74771C2.61759 8.73983 3.47833 9.72163 4.41165 10.6408C5.71033 11.9198 7.08423 13.0206 8.13396 13.8617C8.45728 14.1208 8.74985 14.3552 9 14.5626C9.2501 14.3552 9.5427 14.1208 9.866 13.8617C10.9158 13.0206 12.2897 11.9198 13.5883 10.6408C14.5217 9.72163 15.3824 8.73983 16.0072 7.74771C16.6345 6.7517 17 5.78306 17 4.88049C17 2.76396 15.2914 1.01562 13.1351 1.01562C11.0406 1.01562 9.8181 2.71773 9.5033 3.2259C9.2727 3.59812 8.72727 3.59811 8.4967 3.22589C8.1819 2.71772 6.95944 1.01562 4.86486 1.01562Z" fill="#15151A"/>
</svg>
